<?xml version="1.0" encoding="UTF-8"?>
<svg width="131px" height="41px" viewBox="0 0 131 41" version="1.1" xmlns="http://www.w3.org/2000/svg" xmlns:xlink="http://www.w3.org/1999/xlink">
    <!-- Generator: Sketch 47.1 (45422) - http://www.bohemiancoding.com/sketch -->
    <title>Logo</title>
    <desc>Created with Sketch.</desc>
    <defs></defs>
    <g id="Symbols" stroke="none" stroke-width="1" fill="none" fill-rule="evenodd">
        <g id="Components-/-Header-/" transform="translate(-67.000000, -23.000000)">
            <g id="Logo" transform="translate(67.000000, 23.000000)">
                <g id="Brand--/-Logo-/">
                    <path d="M97.6527407,35.9696716 L101.450307,35.9696716 L101.450307,32.9724323 L102.271981,32.9724323 L102.271981,40.3492694 L101.450307,40.3492694 L101.450307,36.7434687 L97.6527407,36.7434687 L97.6527407,40.3492694 L96.831495,40.3492694 L96.831495,32.9724323 L97.6527407,32.9724323 L97.6527407,35.9696716 Z M103.78173,36.6663019 C103.78173,34.4654305 105.502883,32.8505497 107.634446,32.8505497 C109.766008,32.8505497 111.487161,34.4654305 111.487161,36.6663019 C111.487161,38.8565267 109.777123,40.4820542 107.634446,40.4820542 C105.491341,40.4820542 103.78173,38.8565267 103.78173,36.6663019 Z M104.625634,36.6663019 C104.625634,38.3586903 105.969296,39.7082571 107.634446,39.7082571 C109.300023,39.7082571 110.643257,38.3586903 110.643257,36.6663019 C110.643257,34.9739136 109.300023,33.6247726 107.634446,33.6247726 C105.969296,33.6247726 104.625634,34.9739136 104.625634,36.6663019 Z M112.742072,40.3493546 L113.974582,32.563261 L116.816665,38.7898362 L119.714752,32.5517626 L120.869455,40.3493546 L120.025551,40.3493546 L119.326146,35.2176788 L116.805978,40.6593845 L114.318727,35.2176788 L113.586404,40.3493546 L112.742072,40.3493546 Z M126.421093,33.746783 L123.401166,33.746783 L123.401166,35.9365819 L126.332171,35.9365819 L126.332171,36.7108048 L123.401166,36.7108048 L123.401166,39.5751742 L126.421093,39.5751742 L126.421093,40.3493972 L122.579493,40.3493972 L122.579493,32.97256 L126.421093,32.97256 L126.421093,33.746783 Z" id="Home" fill="#4FA6B0"></path>
                    <path d="M22.8926195,2.93287989 C23.0106121,2.93287989 23.1063742,3.0282737 23.1063742,3.1458125 L23.1063742,28.3817331 C23.1063742,28.4996977 23.0106121,28.5946657 22.8926195,28.5946657 L16.307691,28.5946657 C16.1892709,28.5946657 16.0939363,28.4996977 16.0939363,28.3817331 L16.0939363,18.1856682 L7.01235244,18.1856682 L7.01235244,28.3817331 C7.01235244,28.4996977 6.91701783,28.5946657 6.79859771,28.5946657 L0.213669236,28.5946657 C0.0956766209,28.5946657 -8.55018953e-05,28.4996977 -8.55018953e-05,28.3817331 L-8.55018953e-05,3.1458125 C-8.55018953e-05,3.0282737 0.0956766209,2.93287989 0.213669236,2.93287989 L6.79859771,2.93287989 C6.91701783,2.93287989 7.01235244,3.0282737 7.01235244,3.1458125 L7.01235244,12.6724172 L16.0939363,12.6724172 L16.0939363,3.1458125 C16.0939363,3.0282737 16.1892709,2.93287989 16.307691,2.93287989 L22.8926195,2.93287989 Z M46.5933173,10.9989799 C46.71131,10.9989799 46.8070721,11.0943737 46.8070721,11.2119125 L46.8070721,28.381946 C46.8070721,28.4994848 46.71131,28.5948786 46.5933173,28.5948786 L40.4782218,28.5948786 C40.3598017,28.5948786 40.2644671,28.4994848 40.2644671,28.381946 L40.2644671,27.0477103 C38.9695408,28.4304946 37.2693357,29.130617 35.2031824,29.130617 C33.925784,29.130617 32.7330326,28.893836 31.6569912,28.426236 C30.5830874,27.9607653 29.6327339,27.2964156 28.8320086,26.4532025 C28.0329934,25.6125446 27.4024169,24.609632 26.9569521,23.4725719 C26.5127697,22.3376411 26.2870447,21.0838939 26.2870447,19.747103 C26.2870447,18.4980404 26.5067846,17.2958229 26.9398517,16.1728163 C27.3729188,15.048958 27.9859674,14.0520076 28.7627521,13.2096462 C29.5395368,12.3677107 30.4783476,11.6922885 31.5526789,11.2021176 C32.6282928,10.7119467 33.834297,10.4632415 35.1360634,10.4632415 C37.1539081,10.4632415 38.8767713,11.1160928 40.2644671,12.4060385 L40.2644671,11.2119125 C40.2644671,11.0943737 40.3598017,10.9989799 40.4782218,10.9989799 L46.5933173,10.9989799 Z M38.1948937,23.1987405 C38.6476262,23.0100823 39.0413624,22.7447682 39.3666971,22.4100382 C39.6950244,22.0731788 39.9635004,21.6771242 40.1657124,21.232095 C40.3649318,20.7934538 40.465824,20.3160589 40.465824,19.8139639 C40.465824,19.3105912 40.3645043,18.8272342 40.1648573,18.3770946 C39.9630729,17.9222706 39.6945969,17.5206797 39.3666971,17.1838203 C39.0409349,16.8495161 38.6467712,16.5842021 38.1948937,16.395118 C37.7417336,16.2064597 37.2552278,16.11064 36.7486291,16.11064 C36.2193724,16.11064 35.7217514,16.2064597 35.2690188,16.395118 C34.8167138,16.5837762 34.4221225,16.8490903 34.0967878,17.1838203 C33.7688881,17.5211056 33.5059697,17.9107722 33.315728,18.3430254 C33.1271963,18.7714458 33.0314342,19.2437303 33.0314342,19.747103 C33.0314342,20.2743242 33.1271963,20.7700313 33.3170105,21.2205966 C33.5076798,21.6741431 33.7697431,22.0740305 34.0967878,22.4100382 C34.421695,22.7447682 34.8158588,23.0100823 35.2690188,23.1987405 C36.1543909,23.5679657 37.2680531,23.5845744 38.1948937,23.1987405 Z M68.3874512,13.1933781 C69.1531207,14.024667 69.7610392,15.0160812 70.1936787,16.1395137 C70.6271734,17.2646495 70.8464857,18.4779395 70.8464857,19.7470179 C70.8464857,21.0390929 70.6211882,22.2698434 70.1770059,23.4056259 C69.7319685,24.5418342 69.101392,25.5447468 68.3015218,26.3862565 C67.5016516,27.228192 66.5474504,27.9027625 65.4628589,28.3916557 C64.3748473,28.8818266 63.1867984,29.1305319 61.9307756,29.1305319 C59.8436743,29.1305319 58.1323539,28.4304095 56.8357176,27.0476251 L56.8357176,28.3818608 C56.8357176,28.4993996 56.740383,28.5947934 56.6219629,28.5947934 L50.5410681,28.5947934 C50.422648,28.5947934 50.3273134,28.4993996 50.3273134,28.3818608 L50.3273134,0.601821494 C50.3273134,0.522610565 50.3713468,0.449787614 50.4423134,0.413163206 C50.5128525,0.376112933 50.5992094,0.382075046 50.6637633,0.427642623 L56.7446581,4.68629472 C56.8019444,4.72632605 56.8357176,4.79105756 56.8357176,4.86047359 L56.8357176,12.4110638 C58.2430788,11.1177111 59.9770573,10.4631563 61.9978946,10.4631563 C63.2988059,10.4631563 64.5095127,10.7114357 65.5970969,11.2020324 C66.6833984,11.6922033 67.6217817,12.3620893 68.3874512,13.1933781 Z M63.7690663,21.2320098 C63.9678582,20.7929428 64.0687505,20.3270463 64.0687505,19.8470962 C64.0687505,19.3424459 63.9729884,18.8578113 63.7831741,18.4063942 C63.5933599,17.954977 63.3261665,17.5555155 62.989289,17.2195078 C62.650274,16.8826485 62.2531177,16.6100947 61.8089354,16.4095122 C61.3686006,16.2114849 60.8782473,16.1109807 60.3515556,16.1109807 C59.8449568,16.1109807 59.3648637,16.2063745 58.9241014,16.3950328 C58.4816291,16.5836911 58.092168,16.8490051 57.7668333,17.1837352 C57.4389335,17.5205945 57.1704576,17.9226113 56.9686731,18.3770095 C56.7690262,18.8267231 56.6681339,19.3100801 56.6681339,19.8138787 C56.6681339,20.3181031 56.763896,20.7963497 56.9532827,21.2358426 C57.1426694,21.6766131 57.4090078,22.0641505 57.7450303,22.3886597 C58.0831903,22.7148725 58.4863317,22.9823158 58.9429118,23.1837501 C59.8453844,23.5815082 60.9312584,23.5759719 61.812783,23.1990812 C62.2544003,23.0108488 62.6438614,22.7451089 62.9700511,22.4103789 C63.2975234,22.0735195 63.5664268,21.677039 63.7690663,21.2320098 Z M79.7474468,10.9989799 C79.8658669,10.9989799 79.9612015,11.0943737 79.9612015,11.2119125 L79.9612015,28.381946 C79.9612015,28.4994848 79.8658669,28.5948786 79.7474468,28.5948786 L73.6661245,28.5948786 C73.5485594,28.5948786 73.4523697,28.4994848 73.4523697,28.381946 L73.4523697,11.2119125 C73.4523697,11.0943737 73.5485594,10.9989799 73.6661245,10.9989799 L79.7474468,10.9989799 Z M94.0673042,10.9989799 C94.1848693,10.9989799 94.2810589,11.0943737 94.2810589,11.2119125 L94.2810589,16.2660808 C94.2810589,16.3836196 94.1848693,16.4790134 94.0673042,16.4790134 L90.8199422,16.4790134 L90.8199422,28.381946 C90.8199422,28.4994848 90.7250351,28.5948786 90.6061875,28.5948786 L84.5252927,28.5948786 C84.4073001,28.5948786 84.311538,28.4994848 84.311538,28.381946 L84.311538,16.4790134 L82.5095855,16.4790134 C82.3911654,16.4790134 82.2958308,16.3836196 82.2958308,16.2660808 L82.2958308,11.2119125 C82.2958308,11.0943737 82.3911654,10.9989799 82.5095855,10.9989799 L84.311538,10.9989799 L84.311538,6.05724 C84.311538,5.9397012 84.4073001,5.8443074 84.5252927,5.8443074 L90.6061875,5.8443074 C90.7250351,5.8443074 90.8199422,5.9397012 90.8199422,6.05724 L90.8199422,10.9989799 L94.0673042,10.9989799 Z M115.539865,10.9989799 C115.658286,10.9989799 115.75362,11.0943737 115.75362,11.2119125 L115.75362,28.381946 C115.75362,28.4994848 115.658286,28.5948786 115.539865,28.5948786 L109.425197,28.5948786 C109.30635,28.5948786 109.211443,28.4994848 109.211443,28.381946 L109.211443,27.0477103 C107.916089,28.4304946 106.216311,29.130617 104.14973,29.130617 C102.872332,29.130617 101.680008,28.893836 100.603539,28.426236 C99.5296355,27.9607653 98.5797095,27.2964156 97.7789842,26.4532025 C96.9795415,25.6125446 96.3493925,24.609632 95.9035002,23.4725719 C95.4593178,22.3376411 95.2335928,21.0838939 95.2335928,19.747103 C95.2335928,18.4980404 95.4533327,17.2958229 95.8868273,16.1728163 C96.3194669,15.048958 96.932943,14.0520076 97.7097277,13.2096462 C98.4860849,12.3677107 99.4253232,11.6922885 100.499227,11.2021176 C101.575268,10.7119467 102.780845,10.4632415 104.083039,10.4632415 C106.100884,10.4632415 107.823747,11.1160928 109.211443,12.4060385 L109.211443,11.2119125 C109.211443,11.0943737 109.30635,10.9989799 109.425197,10.9989799 L115.539865,10.9989799 Z M107.141442,23.1987405 C107.594174,23.0100823 107.987911,22.7447682 108.313673,22.4100382 C108.642,22.0731788 108.910048,21.6771242 109.112688,21.232095 C109.31148,20.7934538 109.412372,20.3160589 109.412372,19.8139639 C109.412372,19.3105912 109.31148,18.8272342 109.111833,18.3770946 C108.910048,17.9222706 108.641145,17.5206797 108.313673,17.1838203 C107.987911,16.8495161 107.593319,16.5842021 107.141442,16.395118 C106.688709,16.2064597 106.202203,16.11064 105.695177,16.11064 C105.16592,16.11064 104.668299,16.2064597 104.215567,16.395118 C103.763262,16.5837762 103.368671,16.8490903 103.043336,17.1838203 C102.715864,17.5211056 102.452945,17.9107722 102.262704,18.3430254 C102.073744,18.7714458 101.977982,19.2437303 101.977982,19.747103 C101.977982,20.2743242 102.073744,20.7700313 102.263559,21.2205966 C102.454655,21.6741431 102.716719,22.0740305 103.043336,22.4100382 C103.368243,22.7447682 103.762407,23.0100823 104.215567,23.1987405 C105.100939,23.5679657 106.214601,23.5845744 107.141442,23.1987405 Z M129.983145,10.9989799 C130.101565,10.9989799 130.1969,11.0943737 130.1969,11.2119125 L130.1969,16.2660808 C130.1969,16.3836196 130.101565,16.4790134 129.983145,16.4790134 L126.736638,16.4790134 L126.736638,28.381946 C126.736638,28.4994848 126.640876,28.5948786 126.522883,28.5948786 L120.441988,28.5948786 C120.323141,28.5948786 120.228234,28.4994848 120.228234,28.381946 L120.228234,16.4790134 L118.425426,16.4790134 C118.307434,16.4790134 118.211671,16.3836196 118.211671,16.2660808 L118.211671,11.2119125 C118.211671,11.0943737 118.307434,10.9989799 118.425426,10.9989799 L120.228234,10.9989799 L120.228234,6.05724 C120.228234,5.9397012 120.323141,5.8443074 120.441988,5.8443074 L126.522883,5.8443074 C126.640876,5.8443074 126.736638,5.9397012 126.736638,6.05724 L126.736638,10.9989799 L129.983145,10.9989799 Z" id="Habitat" fill="#FEFEFE"></path>
                    <path d="M79.2606417,2.05785464 C78.9293219,1.72866084 78.5398608,1.46547614 78.1025186,1.27681785 C77.220994,0.898223679 76.1560679,0.89907541 75.2788185,1.27681785 C74.8401937,1.46547614 74.4503051,1.72866084 74.1198403,2.05785464 C73.7889479,2.38747432 73.5251746,2.77586339 73.3357879,3.21194936 C73.1459737,3.64888707 73.0493565,4.12244918 73.0493565,4.61858215 C73.0493565,5.11471512 73.1459737,5.58785137 73.3357879,6.02436321 C73.5251746,6.46087505 73.7889479,6.84926412 74.1198403,7.17845792 C74.4511601,7.50935519 74.8410488,7.77211403 75.2779635,7.95992058 C75.7161607,8.14900474 76.1911237,8.24482441 76.6904548,8.24482441 C77.1880758,8.24482441 77.6634663,8.1494306 78.1025186,7.95992058 C78.5394332,7.77168816 78.9293219,7.50892933 79.2606417,7.17845792 C79.5919616,6.84883825 79.8557349,6.46044918 80.0446941,6.02436321 C80.2349358,5.58657377 80.3311255,5.11343752 80.3311255,4.61858215 C80.3311255,4.12372678 80.2349358,3.65059053 80.0446941,3.2115235 C79.8553074,2.77628925 79.5911066,2.38790018 79.2606417,2.05785464" id="Dot" fill="#4FA6B0"></path>
                </g>
            </g>
        </g>
    </g>
</svg>